<svg width="22" height="23" viewBox="0 0 22 23" fill="none" xmlns="http://www.w3.org/2000/svg">
<path fill-rule="evenodd" clip-rule="evenodd" d="M13.4537 3.3032L18.4558 6.99793C19.4198 7.6956 19.9934 8.81112 20 10.0011V16.6895C19.938 18.8342 18.1566 20.5268 16.0116 20.479H5.99789C3.8492 20.532 2.06195 18.838 2 16.6895V10.0011C2.00659 8.81112 2.58019 7.6956 3.54421 6.99793L8.54632 3.3032C10.0068 2.23227 11.9932 2.23227 13.4537 3.3032ZM6.73684 16.4716H15.2632C15.6556 16.4716 15.9737 16.1535 15.9737 15.7611C15.9737 15.3687 15.6556 15.0506 15.2632 15.0506H6.73684C6.34443 15.0506 6.02632 15.3687 6.02632 15.7611C6.02632 16.1535 6.34443 16.4716 6.73684 16.4716Z" fill="white"/>
</svg>
