<svg width="18" height="19" viewBox="0 0 18 19" fill="none" xmlns="http://www.w3.org/2000/svg">
<path fill-rule="evenodd" clip-rule="evenodd" d="M11.4537 1.3032L16.4558 4.99793C17.4198 5.6956 17.9934 6.81112 18 8.00109V14.6895C17.938 16.8342 16.1566 18.5268 14.0116 18.479H3.99789C1.8492 18.532 0.0619475 16.838 0 14.6895V8.00109C0.00659331 6.81112 0.580187 5.6956 1.54421 4.99793L6.54632 1.3032C8.00682 0.232268 9.99318 0.232268 11.4537 1.3032ZM4.73684 14.4716H13.2632C13.6556 14.4716 13.9737 14.1535 13.9737 13.7611C13.9737 13.3687 13.6556 13.0506 13.2632 13.0506H4.73684C4.34443 13.0506 4.02632 13.3687 4.02632 13.7611C4.02632 14.1535 4.34443 14.4716 4.73684 14.4716Z" fill="#A4A4A4"/>
</svg>
