<svg width="22" height="19" viewBox="0 0 22 19" fill="none" xmlns="http://www.w3.org/2000/svg">
<path d="M21.0502 6.86001C20.9502 3.46001 18.2502 0.76001 14.8502 0.76001C13.7502 0.76001 12.0502 1.56001 11.3502 2.86001C11.2502 3.16001 10.8502 3.16001 10.7502 2.86001C9.9502 1.66001 8.35019 0.86001 7.1502 0.86001C3.8502 0.86001 1.0502 3.56001 0.950195 6.86001V7.06001C0.950195 8.76001 1.6502 10.36 2.8502 11.56C2.8502 11.56 2.8502 11.56 2.8502 11.66C2.9502 11.76 7.7502 15.96 9.9502 17.86C10.5502 18.36 11.4502 18.36 12.0502 17.86C14.2502 15.96 18.9502 11.76 19.1502 11.66C19.1502 11.66 19.1502 11.66 19.1502 11.56C20.3502 10.46 21.0502 8.86001 21.0502 7.06001V6.86001Z" fill="#A4A4A4"/>
</svg>
