<svg width="16" height="19" viewBox="0 0 16 19" fill="none" xmlns="http://www.w3.org/2000/svg">
<path d="M12.6464 19H3.36644C2.35562 18.9651 1.41401 18.5032 0.798789 17.7404C0.183568 16.9777 -0.0409917 15.9938 0.186442 15.0575L0.426442 13.9745C0.702477 12.5084 2.02906 11.4311 3.59644 11.4H12.4164C13.9838 11.4311 15.3104 12.5084 15.5864 13.9745L15.8264 15.0575C16.0539 15.9938 15.8293 16.9777 15.2141 17.7404C14.5989 18.5032 13.6573 18.9651 12.6464 19Z" fill="#A4A4A4"/>
<path d="M8.50644 9.50001H7.50644C5.2973 9.50001 3.50644 7.79869 3.50644 5.70001V3.19201C3.50378 2.34467 3.85692 1.5313 4.48762 0.932132C5.11832 0.332966 5.9745 -0.00251894 6.86644 1.42421e-05H9.14644C10.0384 -0.00251894 10.8946 0.332966 11.5253 0.932132C12.156 1.5313 12.5091 2.34467 12.5064 3.19201V5.70001C12.5064 6.70783 12.085 7.67438 11.3349 8.38701C10.5847 9.09965 9.56731 9.50001 8.50644 9.50001Z" fill="#A4A4A4"/>
</svg>
