<svg width="22" height="18" viewBox="0 0 22 18" fill="none" xmlns="http://www.w3.org/2000/svg">
<path fill-rule="evenodd" clip-rule="evenodd" d="M5.75 0.5C2.85051 0.5 0.5 2.87849 0.5 5.8125V12.1875C0.5 15.1215 2.85051 17.5 5.75 17.5H16.25C19.0771 17.5 21.3823 15.2388 21.4956 12.4062H16.8047C14.9235 12.4062 13.3984 10.8812 13.3984 8.99996C13.3984 7.11874 14.9235 5.59371 16.8047 5.59371H21.4956C21.3822 2.76115 19.0771 0.5 16.25 0.5H5.75ZM16.8047 7.09371H21.5V10.9062H16.8047C15.7519 10.9062 14.8984 10.0528 14.8984 8.99996C14.8984 7.94717 15.7519 7.09371 16.8047 7.09371ZM4.16699 10.4103C3.75278 10.4103 3.41699 10.7461 3.41699 11.1603C3.41699 11.5746 3.75278 11.9103 4.16699 11.9103H9.94199C10.3562 11.9103 10.692 11.5746 10.692 11.1603C10.692 10.7461 10.3562 10.4103 9.94199 10.4103H4.16699ZM17.4668 8.1154C17.0526 8.1154 16.7168 8.45118 16.7168 8.8654C16.7168 9.27961 17.0526 9.6154 17.4668 9.6154H17.6593C18.0735 9.6154 18.4093 9.27961 18.4093 8.8654C18.4093 8.45118 18.0735 8.1154 17.6593 8.1154H17.4668Z" fill="white"/>
</svg>
