<svg width="22" height="18" viewBox="0 0 22 18" fill="none" xmlns="http://www.w3.org/2000/svg">
<path fill-rule="evenodd" clip-rule="evenodd" d="M5.75 0.5C2.85051 0.5 0.5 2.87849 0.5 5.8125V12.1875C0.5 15.1215 2.85051 17.5 5.75 17.5H16.25C19.0771 17.5 21.3823 15.2388 21.4956 12.4062H16.8047C14.9235 12.4062 13.3985 10.8812 13.3985 9C13.3985 7.11878 14.9235 5.59375 16.8047 5.59375H21.4956C21.3823 2.76117 19.0771 0.5 16.25 0.5H5.75ZM16.8047 7.09375H21.5V10.9062H16.8047C15.7519 10.9062 14.8985 10.0528 14.8985 9C14.8985 7.94721 15.7519 7.09375 16.8047 7.09375ZM4.16569 10.4102C3.75148 10.4102 3.41569 10.746 3.41569 11.1602C3.41569 11.5744 3.75148 11.9102 4.16569 11.9102H9.94069C10.3549 11.9102 10.6907 11.5744 10.6907 11.1602C10.6907 10.746 10.3549 10.4102 9.94069 10.4102H4.16569ZM17.4666 8.11536C17.0524 8.11536 16.7166 8.45114 16.7166 8.86536C16.7166 9.27957 17.0524 9.61536 17.4666 9.61536H17.6591C18.0733 9.61536 18.4091 9.27957 18.4091 8.86536C18.4091 8.45114 18.0733 8.11536 17.6591 8.11536H17.4666Z" fill="#A4A4A4"/>
</svg>
