<svg width="40" height="40" viewBox="0 0 40 40" fill="none" xmlns="http://www.w3.org/2000/svg">
<path d="M21.2606 19.469C19.1194 17.3278 18.0488 16.2572 18.0488 14.9268C18.0488 13.5964 19.1194 12.5258 21.2606 10.3846L21.4335 10.2118C23.5747 8.0706 24.6453 7 25.9756 7C27.306 7 28.3766 8.0706 30.5178 10.2118L30.6906 10.3846C32.8318 12.5258 33.9024 13.5964 33.9024 14.9268C33.9024 16.2572 32.8318 17.3278 30.6906 19.469L30.5178 19.6418C28.3766 21.783 27.306 22.8536 25.9756 22.8536C24.6453 22.8536 23.5747 21.783 21.4335 19.6418L21.2606 19.469Z" fill="url(#paint0_linear_365_1272)" fill-opacity="0.8"/>
<g clip-path="url(#clip0_365_1272)">
<g filter="url(#filter0_b_365_1272)">
<path fill-rule="evenodd" clip-rule="evenodd" d="M28.3615 23.9736C30.4687 19.9374 28.4627 15.1496 26.1568 12.8437C22.0293 8.71618 15.3373 8.71618 11.2099 12.8437C7.08239 16.9711 7.08239 23.6631 11.2099 27.7906C13.6139 30.1946 18.3197 32.119 22.3412 29.9977C22.7545 29.7798 22.9613 29.6707 23.0623 29.63C23.4891 29.4584 23.7135 29.4323 24.1682 29.5013C24.2759 29.5177 24.4168 29.5542 24.6985 29.6272C25.5438 29.8463 25.9665 29.9558 26.2746 29.9447C27.3823 29.9048 28.2711 29.0161 28.311 27.9084C28.322 27.6003 28.2125 27.1777 27.9934 26.3325C27.9204 26.0508 27.8839 25.9099 27.8676 25.8028C27.7983 25.3481 27.8232 25.1301 27.9933 24.7028C28.0333 24.6021 28.1427 24.3926 28.3615 23.9736Z" fill="#5925BA"/>
</g>
<g filter="url(#filter1_d_365_1272)">
<path d="M15.3628 20.1668C15.3628 20.7505 14.8896 21.2237 14.3059 21.2237C13.7222 21.2237 13.249 20.7505 13.249 20.1668C13.249 19.5831 13.7222 19.1099 14.3059 19.1099C14.8896 19.1099 15.3628 19.5831 15.3628 20.1668Z" fill="url(#paint1_linear_365_1272)"/>
<path d="M19.5905 20.1668C19.5905 20.7505 19.1173 21.2237 18.5336 21.2237C17.9498 21.2237 17.4767 20.7505 17.4767 20.1668C17.4767 19.5831 17.9498 19.1099 18.5336 19.1099C19.1173 19.1099 19.5905 19.5831 19.5905 20.1668Z" fill="url(#paint2_linear_365_1272)"/>
<path d="M22.7612 21.2237C23.3449 21.2237 23.8181 20.7505 23.8181 20.1668C23.8181 19.5831 23.3449 19.1099 22.7612 19.1099C22.1775 19.1099 21.7043 19.5831 21.7043 20.1668C21.7043 20.7505 22.1775 21.2237 22.7612 21.2237Z" fill="url(#paint3_linear_365_1272)"/>
</g>
</g>
<defs>
<filter id="filter0_b_365_1272" x="-15.8857" y="-14.252" width="69.1357" height="69.1626" filterUnits="userSpaceOnUse" color-interpolation-filters="sRGB">
<feFlood flood-opacity="0" result="BackgroundImageFix"/>
<feGaussianBlur in="BackgroundImageFix" stdDeviation="12"/>
<feComposite in2="SourceAlpha" operator="in" result="effect1_backgroundBlur_365_1272"/>
<feBlend mode="normal" in="SourceGraphic" in2="effect1_backgroundBlur_365_1272" result="shape"/>
</filter>
<filter id="filter1_d_365_1272" x="9.99319" y="15.854" width="23.5927" height="15.1371" filterUnits="userSpaceOnUse" color-interpolation-filters="sRGB">
<feFlood flood-opacity="0" result="BackgroundImageFix"/>
<feColorMatrix in="SourceAlpha" type="matrix" values="0 0 0 0 0 0 0 0 0 0 0 0 0 0 0 0 0 0 127 0" result="hardAlpha"/>
<feOffset dx="3.25583" dy="3.25583"/>
<feGaussianBlur stdDeviation="3.25583"/>
<feColorMatrix type="matrix" values="0 0 0 0 0.376471 0 0 0 0 0.156863 0 0 0 0 0.811765 0 0 0 0.5 0"/>
<feBlend mode="normal" in2="BackgroundImageFix" result="effect1_dropShadow_365_1272"/>
<feBlend mode="normal" in="SourceGraphic" in2="effect1_dropShadow_365_1272" result="shape"/>
</filter>
<linearGradient id="paint0_linear_365_1272" x1="18.0488" y1="22.8536" x2="34.2402" y2="7.35286" gradientUnits="userSpaceOnUse">
<stop stop-color="#4C2094"/>
<stop offset="1" stop-color="#712EFF"/>
</linearGradient>
<linearGradient id="paint1_linear_365_1272" x1="18.6226" y1="21.674" x2="19.7657" y2="16.0713" gradientUnits="userSpaceOnUse">
<stop stop-color="white"/>
<stop offset="1" stop-color="white" stop-opacity="0.2"/>
</linearGradient>
<linearGradient id="paint2_linear_365_1272" x1="18.6226" y1="21.674" x2="19.7657" y2="16.0713" gradientUnits="userSpaceOnUse">
<stop stop-color="white"/>
<stop offset="1" stop-color="white" stop-opacity="0.2"/>
</linearGradient>
<linearGradient id="paint3_linear_365_1272" x1="18.6226" y1="21.674" x2="19.7657" y2="16.0713" gradientUnits="userSpaceOnUse">
<stop stop-color="white"/>
<stop offset="1" stop-color="white" stop-opacity="0.2"/>
</linearGradient>
<clipPath id="clip0_365_1272">
<rect width="25.3658" height="25.3658" fill="white" transform="translate(6 7.63428)"/>
</clipPath>
</defs>
</svg>
