<svg width="40" height="40" viewBox="0 0 40 40" fill="none" xmlns="http://www.w3.org/2000/svg">
<circle cx="13.125" cy="15.7749" r="8.125" fill="url(#paint0_linear_344_2206)" fill-opacity="0.8"/>
<path fill-rule="evenodd" clip-rule="evenodd" d="M32.0837 19.9998C32.0837 25.9829 27.2334 30.8332 21.2503 30.8332C15.2672 30.8332 10.417 25.9829 10.417 19.9998C10.417 14.0168 15.2672 9.1665 21.2503 9.1665C27.2334 9.1665 32.0837 14.0168 32.0837 19.9998Z" fill="#5925BA"/>
<path fill-rule="evenodd" clip-rule="evenodd" d="M15.4592 21.4455C15.8575 21.239 16.3479 21.3945 16.5545 21.7928C16.846 22.3551 17.4525 23.0699 18.2942 23.6423C19.1285 24.2096 20.1458 24.6043 21.2498 24.6043C22.3539 24.6043 23.3712 24.2096 24.2055 23.6423C25.0472 23.0699 25.6537 22.3551 25.9452 21.7928C26.1518 21.3945 26.6422 21.239 27.0405 21.4455C27.4389 21.6521 27.5944 22.1425 27.3878 22.5408C26.9571 23.3715 26.1553 24.2816 25.1192 24.986C24.0757 25.6955 22.7458 26.2293 21.2498 26.2293C19.7539 26.2293 18.4239 25.6955 17.3805 24.986C16.3444 24.2816 15.5426 23.3715 15.1119 22.5408C14.9053 22.1425 15.0608 21.6521 15.4592 21.4455ZM17.9998 16.7502C18.5982 16.7502 19.0832 16.2651 19.0832 15.6668C19.0832 15.0685 18.5982 14.5835 17.9998 14.5835C17.4015 14.5835 16.9165 15.0685 16.9165 15.6668C16.9165 16.2651 17.4015 16.7502 17.9998 16.7502ZM24.4998 16.7502C25.0982 16.7502 25.5832 16.2651 25.5832 15.6668C25.5832 15.0685 25.0982 14.5835 24.4998 14.5835C23.9015 14.5835 23.4165 15.0685 23.4165 15.6668C23.4165 16.2651 23.9015 16.7502 24.4998 16.7502Z" fill="url(#paint1_linear_344_2206)"/>
<defs>
<linearGradient id="paint0_linear_344_2206" x1="5" y1="23.8999" x2="21.5963" y2="8.01159" gradientUnits="userSpaceOnUse">
<stop stop-color="#4C2094"/>
<stop offset="1" stop-color="#712EFF"/>
</linearGradient>
<linearGradient id="paint1_linear_344_2206" x1="21.3548" y1="28.7104" x2="37.4129" y2="11.8708" gradientUnits="userSpaceOnUse">
<stop stop-color="white"/>
<stop offset="1" stop-color="white" stop-opacity="0.2"/>
</linearGradient>
</defs>
</svg>
