<svg width="40" height="40" viewBox="0 0 40 40" fill="none" xmlns="http://www.w3.org/2000/svg">
<circle cx="25.8824" cy="25.3531" r="7.64706" fill="url(#paint0_linear_365_1124)" fill-opacity="0.8"/>
<g clip-path="url(#clip0_365_1124)">
<g filter="url(#filter0_b_365_1124)">
<path fill-rule="evenodd" clip-rule="evenodd" d="M11.1601 10.0127C11.2673 9.93481 11.3781 9.86316 11.4934 9.79723C11.5304 9.87965 11.5827 9.95686 11.6504 10.0245C12.9662 11.3403 13.9991 12.3716 14.9096 13.1003C15.8313 13.838 16.6945 14.3222 17.6891 14.4798C18.2967 14.576 18.9157 14.576 19.5234 14.4798C20.4901 14.3267 21.3326 13.8649 22.2255 13.1617C23.1071 12.4674 24.0967 11.4889 25.3424 10.2441C25.3824 10.2042 25.417 10.1609 25.4463 10.1152C25.823 10.4087 26.1569 10.7538 26.4379 11.1405C27.4115 12.4806 27.4115 14.3923 27.4115 18.2155V20.2548C27.4115 24.078 27.4115 25.9896 26.4379 27.3297C26.1235 27.7625 25.7428 28.1431 25.31 28.4576C23.97 29.4312 22.0583 29.4312 18.2351 29.4312C14.4118 29.4312 12.5002 29.4312 11.1601 28.4576C10.7273 28.1431 10.3467 27.7625 10.0322 27.3297C9.05859 25.9896 9.05859 24.078 9.05859 20.2548V18.2155C9.05859 14.3923 9.05859 12.4806 10.0322 11.1405C10.3467 10.7078 10.7273 10.3271 11.1601 10.0127Z" fill="#28D03B"/>
<path d="M18.2351 9.03906C20.9879 9.03906 22.7497 9.03906 24.0207 9.40252C22.8784 10.5418 22.0239 11.3737 21.2793 11.9601C20.4946 12.5781 19.8932 12.8727 19.2841 12.9692C18.835 13.0403 18.3775 13.0403 17.9283 12.9692C17.3018 12.8699 16.6834 12.561 15.8653 11.9062C15.1035 11.2965 14.227 10.4364 13.052 9.26304C14.2675 9.03906 15.8924 9.03906 18.2351 9.03906Z" fill="#28D03B"/>
</g>
<g filter="url(#filter1_d_365_1124)">
<path fill-rule="evenodd" clip-rule="evenodd" d="M16.1955 18.4702C15.7732 18.4702 15.4308 18.8126 15.4308 19.2349C15.4308 19.6573 15.7732 19.9996 16.1955 19.9996H20.274C20.6963 19.9996 21.0387 19.6573 21.0387 19.2349C21.0387 18.8126 20.6963 18.4702 20.274 18.4702H16.1955ZM14.1563 22.5486C13.734 22.5486 13.3916 22.891 13.3916 23.3134C13.3916 23.7357 13.734 24.0781 14.1563 24.0781H22.3132C22.7355 24.0781 23.0779 23.7357 23.0779 23.3134C23.0779 22.891 22.7355 22.5486 22.3132 22.5486H14.1563Z" fill="url(#paint1_linear_365_1124)"/>
</g>
</g>
<defs>
<filter id="filter0_b_365_1124" x="-14.9414" y="-14.9609" width="66.3525" height="68.3921" filterUnits="userSpaceOnUse" color-interpolation-filters="sRGB">
<feFlood flood-opacity="0" result="BackgroundImageFix"/>
<feGaussianBlur in="BackgroundImageFix" stdDeviation="12"/>
<feComposite in2="SourceAlpha" operator="in" result="effect1_backgroundBlur_365_1124"/>
<feBlend mode="normal" in="SourceGraphic" in2="effect1_backgroundBlur_365_1124" result="shape"/>
</filter>
<filter id="filter1_d_365_1124" x="10.1358" y="15.2144" width="22.7098" height="18.6312" filterUnits="userSpaceOnUse" color-interpolation-filters="sRGB">
<feFlood flood-opacity="0" result="BackgroundImageFix"/>
<feColorMatrix in="SourceAlpha" type="matrix" values="0 0 0 0 0 0 0 0 0 0 0 0 0 0 0 0 0 0 127 0" result="hardAlpha"/>
<feOffset dx="3.25583" dy="3.25583"/>
<feGaussianBlur stdDeviation="3.25583"/>
<feColorMatrix type="matrix" values="0 0 0 0 0.152941 0 0 0 0 0.784314 0 0 0 0 0.235294 0 0 0 0.5 0"/>
<feBlend mode="normal" in2="BackgroundImageFix" result="effect1_dropShadow_365_1124"/>
<feBlend mode="normal" in="SourceGraphic" in2="effect1_dropShadow_365_1124" result="shape"/>
</filter>
<linearGradient id="paint0_linear_365_1124" x1="18.2354" y1="33.0002" x2="33.8554" y2="18.0465" gradientUnits="userSpaceOnUse">
<stop stop-color="#209440"/>
<stop offset="1" stop-color="#2EFF36"/>
</linearGradient>
<linearGradient id="paint1_linear_365_1124" x1="18.3163" y1="25.2728" x2="25.0957" y2="13.7942" gradientUnits="userSpaceOnUse">
<stop stop-color="white"/>
<stop offset="1" stop-color="white" stop-opacity="0.2"/>
</linearGradient>
<clipPath id="clip0_365_1124">
<rect width="24.4706" height="24.4706" fill="white" transform="translate(6 7)"/>
</clipPath>
</defs>
</svg>
