<svg width="40" height="40" viewBox="0 0 40 40" fill="none" xmlns="http://www.w3.org/2000/svg">
<ellipse cx="13.25" cy="16" rx="8.25" ry="8.5" fill="url(#paint0_linear_365_1103)" fill-opacity="0.8"/>
<g clip-path="url(#clip0_365_1103)">
<g filter="url(#filter0_b_365_1103)">
<path fill-rule="evenodd" clip-rule="evenodd" d="M24.6284 29.7255C27.2269 26.412 30.5 21.5979 30.5 18.3723C30.5 13.0235 26.4706 8.6875 21.5 8.6875C16.5294 8.6875 12.5 13.0235 12.5 18.3723C12.5 21.5979 15.7731 26.412 18.3716 29.7255C19.7273 31.4543 20.4051 32.3187 21.5 32.3187C22.5949 32.3187 23.2727 31.4543 24.6284 29.7255Z" fill="#28D03B"/>
</g>
<g filter="url(#filter1_d_365_1103)">
<path d="M25.532 17.0919C25.8244 16.7291 25.7673 16.1979 25.4044 15.9055C25.0416 15.6131 24.5104 15.6703 24.218 16.0331L21.9438 18.8555C21.4769 19.435 21.1822 19.7975 20.937 20.0265C20.8218 20.1341 20.7482 20.182 20.7059 20.2031C20.6744 20.2189 20.6631 20.2188 20.6571 20.2188H20.6555C20.6494 20.2188 20.6382 20.2189 20.6067 20.2031C20.5644 20.182 20.4908 20.1341 20.3755 20.0265C20.1303 19.7975 19.8357 19.435 19.3687 18.8555L18.782 18.1274C18.4897 17.7646 17.9585 17.7074 17.5956 17.9998C17.2328 18.2922 17.1756 18.8233 17.468 19.1862L18.0914 19.9598L18.0914 19.9598C18.5104 20.48 18.8802 20.9389 19.2238 21.2598C19.5927 21.6043 20.0513 21.9063 20.6563 21.9063C21.2612 21.9063 21.7199 21.6043 22.0888 21.2598C22.4324 20.9389 22.8021 20.48 23.2212 19.9598L25.532 17.0919Z" fill="url(#paint1_linear_365_1103)"/>
</g>
</g>
<defs>
<filter id="filter0_b_365_1103" x="-11.5" y="-15.3125" width="66" height="71.6313" filterUnits="userSpaceOnUse" color-interpolation-filters="sRGB">
<feFlood flood-opacity="0" result="BackgroundImageFix"/>
<feGaussianBlur in="BackgroundImageFix" stdDeviation="12"/>
<feComposite in2="SourceAlpha" operator="in" result="effect1_backgroundBlur_365_1103"/>
<feBlend mode="normal" in="SourceGraphic" in2="effect1_backgroundBlur_365_1103" result="shape"/>
</filter>
<filter id="filter1_d_365_1103" x="14.0254" y="12.4629" width="21.4608" height="19.2108" filterUnits="userSpaceOnUse" color-interpolation-filters="sRGB">
<feFlood flood-opacity="0" result="BackgroundImageFix"/>
<feColorMatrix in="SourceAlpha" type="matrix" values="0 0 0 0 0 0 0 0 0 0 0 0 0 0 0 0 0 0 127 0" result="hardAlpha"/>
<feOffset dx="3.25583" dy="3.25583"/>
<feGaussianBlur stdDeviation="3.25583"/>
<feColorMatrix type="matrix" values="0 0 0 0 0.152941 0 0 0 0 0.784314 0 0 0 0 0.235294 0 0 0 0.5 0"/>
<feBlend mode="normal" in2="BackgroundImageFix" result="effect1_dropShadow_365_1103"/>
<feBlend mode="normal" in="SourceGraphic" in2="effect1_dropShadow_365_1103" result="shape"/>
</filter>
<linearGradient id="paint0_linear_365_1103" x1="5" y1="24.5" x2="22.332" y2="8.39537" gradientUnits="userSpaceOnUse">
<stop stop-color="#209440"/>
<stop offset="1" stop-color="#2EFF36"/>
</linearGradient>
<linearGradient id="paint1_linear_365_1103" x1="21.5711" y1="23.2245" x2="29.7651" y2="12.2715" gradientUnits="userSpaceOnUse">
<stop stop-color="white"/>
<stop offset="1" stop-color="white" stop-opacity="0.2"/>
</linearGradient>
<clipPath id="clip0_365_1103">
<rect width="27" height="27" fill="white" transform="translate(8 7)"/>
</clipPath>
</defs>
</svg>
