<svg width="40" height="40" viewBox="0 0 40 40" fill="none" xmlns="http://www.w3.org/2000/svg">
<rect x="16" y="4" width="19.3333" height="19.3333" rx="9.66667" fill="url(#paint0_linear_365_1360)" fill-opacity="0.8"/>
<g filter="url(#filter0_b_365_1360)">
<path fill-rule="evenodd" clip-rule="evenodd" d="M5 22.1558C5 17.6053 5 15.3301 5.64405 13.5921C6.21058 12.0633 7.11455 10.8203 8.22642 10.0413C9.49044 9.15576 11.1451 9.15576 14.4545 9.15576H21.5455C24.8549 9.15576 26.5096 9.15576 27.7736 10.0413C28.8854 10.8203 29.7894 12.0633 30.3559 13.5921C31 15.3301 31 17.6053 31 22.1558C31 26.7062 31 28.9814 30.3559 30.7194C29.7894 32.2483 28.8854 33.4912 27.7736 34.2702C26.5096 35.1558 24.8549 35.1558 21.5455 35.1558H14.4545C11.1451 35.1558 9.49044 35.1558 8.22642 34.2702C7.11455 33.4912 6.21058 32.2483 5.64405 30.7194C5 28.9814 5 26.7062 5 22.1558Z" fill="#C927AA"/>
</g>
<rect x="9.91113" y="26.6226" width="5.77778" height="1.44444" rx="0.722222" fill="#FFF1CA"/>
<rect x="9.91113" y="26.6226" width="5.77778" height="1.44444" rx="0.722222" fill="url(#paint1_linear_365_1360)"/>
<rect x="19.7324" y="25.3223" width="5.77778" height="1.44444" rx="0.722222" fill="#FFF1CA"/>
<rect x="19.7324" y="25.3223" width="5.77778" height="1.44444" rx="0.722222" fill="url(#paint2_linear_365_1360)"/>
<rect x="19.7324" y="27.4888" width="5.77778" height="1.44444" rx="0.722222" fill="#FFF1CA"/>
<rect x="19.7324" y="27.4888" width="5.77778" height="1.44444" rx="0.722222" fill="url(#paint3_linear_365_1360)"/>
<rect x="19.7324" y="16.3667" width="5.77778" height="1.44444" rx="0.722222" fill="#FFF1CA"/>
<rect x="19.7324" y="16.3667" width="5.77778" height="1.44444" rx="0.722222" fill="url(#paint4_linear_365_1360)"/>
<rect x="23.3438" y="14.2002" width="5.77778" height="1.44444" rx="0.722222" transform="rotate(90 23.3438 14.2002)" fill="#FFF1CA"/>
<rect x="23.3438" y="14.2002" width="5.77778" height="1.44444" rx="0.722222" transform="rotate(90 23.3438 14.2002)" fill="url(#paint5_linear_365_1360)"/>
<rect x="11.2676" y="14.5352" width="5.77778" height="1.44444" rx="0.722222" transform="rotate(45 11.2676 14.5352)" fill="#FFF1CA"/>
<rect x="11.2676" y="14.5352" width="5.77778" height="1.44444" rx="0.722222" transform="rotate(45 11.2676 14.5352)" fill="url(#paint6_linear_365_1360)"/>
<rect x="15.3535" y="15.5566" width="5.77778" height="1.44444" rx="0.722222" transform="rotate(135 15.3535 15.5566)" fill="#FFF1CA"/>
<rect x="15.3535" y="15.5566" width="5.77778" height="1.44444" rx="0.722222" transform="rotate(135 15.3535 15.5566)" fill="url(#paint7_linear_365_1360)"/>
<defs>
<filter id="filter0_b_365_1360" x="-19" y="-14.8442" width="74" height="74" filterUnits="userSpaceOnUse" color-interpolation-filters="sRGB">
<feFlood flood-opacity="0" result="BackgroundImageFix"/>
<feGaussianBlur in="BackgroundImageFix" stdDeviation="12"/>
<feComposite in2="SourceAlpha" operator="in" result="effect1_backgroundBlur_365_1360"/>
<feBlend mode="normal" in="SourceGraphic" in2="effect1_backgroundBlur_365_1360" result="shape"/>
</filter>
<linearGradient id="paint0_linear_365_1360" x1="16" y1="23.3333" x2="35.7453" y2="4.43031" gradientUnits="userSpaceOnUse">
<stop stop-color="#94208F"/>
<stop offset="1" stop-color="#FF2EC5"/>
</linearGradient>
<linearGradient id="paint1_linear_365_1360" x1="12.8487" y1="28.3747" x2="13.8036" y2="24.6304" gradientUnits="userSpaceOnUse">
<stop stop-color="white"/>
<stop offset="1" stop-color="white" stop-opacity="0.2"/>
</linearGradient>
<linearGradient id="paint2_linear_365_1360" x1="22.67" y1="27.0744" x2="23.6249" y2="23.3301" gradientUnits="userSpaceOnUse">
<stop stop-color="white"/>
<stop offset="1" stop-color="white" stop-opacity="0.2"/>
</linearGradient>
<linearGradient id="paint3_linear_365_1360" x1="22.67" y1="29.2409" x2="23.6249" y2="25.4966" gradientUnits="userSpaceOnUse">
<stop stop-color="white"/>
<stop offset="1" stop-color="white" stop-opacity="0.2"/>
</linearGradient>
<linearGradient id="paint4_linear_365_1360" x1="22.67" y1="18.1189" x2="23.6249" y2="14.3745" gradientUnits="userSpaceOnUse">
<stop stop-color="white"/>
<stop offset="1" stop-color="white" stop-opacity="0.2"/>
</linearGradient>
<linearGradient id="paint5_linear_365_1360" x1="26.2813" y1="15.9524" x2="27.2362" y2="12.208" gradientUnits="userSpaceOnUse">
<stop stop-color="white"/>
<stop offset="1" stop-color="white" stop-opacity="0.2"/>
</linearGradient>
<linearGradient id="paint6_linear_365_1360" x1="14.2051" y1="16.2873" x2="15.1601" y2="12.543" gradientUnits="userSpaceOnUse">
<stop stop-color="white"/>
<stop offset="1" stop-color="white" stop-opacity="0.2"/>
</linearGradient>
<linearGradient id="paint7_linear_365_1360" x1="18.2911" y1="17.3088" x2="19.246" y2="13.5644" gradientUnits="userSpaceOnUse">
<stop stop-color="white"/>
<stop offset="1" stop-color="white" stop-opacity="0.2"/>
</linearGradient>
</defs>
</svg>
